HIERARCHY
ROOT Hips
{
  OFFSET -35.4901 99.2528 17.4586
  CHANNELS 6 Xposition Yposition Zposition Zrotation Xrotation Yrotation
  JOINT LeftUpLeg
  {
    OFFSET 8.64259 1.95398 -2.38835
    CHANNELS 3 Zrotation Xrotation Yrotation
    JOINT LeftLeg
    {
      OFFSET 43.7702 0 0
      CHANNELS 3 Zrotation Xrotation Yrotation
      JOINT LeftFoot
      {
        OFFSET 40.6238 0 0
        CHANNELS 3 Zrotation Xrotation Yrotation
        JOINT LeftToeBase
        {
          OFFSET 12.7242 0 0
          CHANNELS 3 Zrotation Xrotation Yrotation
          End Site
          {
            OFFSET 0 0 0
          }
        }
      }
    }
  }
  JOINT RightUpLeg
  {
    OFFSET -8.2249 1.95398 -2.59336
    CHANNELS 3 Zrotation Xrotation Yrotation
    JOINT RightLeg
    {
      OFFSET 43.5653 0 0
      CHANNELS 3 Zrotation Xrotation Yrotation
      JOINT RightFoot
      {
        OFFSET 40.6238 0 0
        CHANNELS 3 Zrotation Xrotation Yrotation
        JOINT RightToeBase
        {
          OFFSET 12.7242 0 0
          CHANNELS 3 Zrotation Xrotation Yrotation
          End Site
          {
            OFFSET 0 0 0
          }
        }
      }
    }
  }
  JOINT Spine
  {
    OFFSET 0.165834 0.87714 6.61349
    CHANNELS 3 Zrotation Xrotation Yrotation
    JOINT Spine1
    {
      OFFSET 7.38963 1.71661e-005 0
      CHANNELS 3 Zrotation Xrotation Yrotation
      JOINT Spine2
      {
        OFFSET 11.9445 1.14441e-005 0
        CHANNELS 3 Zrotation Xrotation Yrotation
        JOINT Spine3
        {
          OFFSET 14.7254 4.19617e-005 0
          CHANNELS 3 Zrotation Xrotation Yrotation
          JOINT Spine4
          {
            OFFSET 10.9679 0 0
            CHANNELS 3 Zrotation Xrotation Yrotation
            JOINT RightShoulder
            {
              OFFSET 2.46616 -1.6653 3.69651
              CHANNELS 3 Zrotation Xrotation Yrotation
              JOINT RightArm
              {
                OFFSET 13.0012 0 0
                CHANNELS 3 Zrotation Xrotation Yrotation
                JOINT RightForeArm
                {
                  OFFSET 28.7848 1.52588e-005 0
                  CHANNELS 3 Zrotation Xrotation Yrotation
                  JOINT RightHand
                  {
                    OFFSET 26.5688 1.52588e-005 0
                    CHANNELS 3 Zrotation Xrotation Yrotation
                    End Site
                    {
                      OFFSET 0 0 0
                    }
                  }
                }
              }
            }
            JOINT LeftShoulder
            {
              OFFSET 2.38034 -1.29275 -3.7523
              CHANNELS 3 Zrotation Xrotation Yrotation
              JOINT LeftArm
              {
                OFFSET 16.3182 6.10351e-005 0
                CHANNELS 3 Zrotation Xrotation Yrotation
                JOINT LeftForeArm
                {
                  OFFSET 27.0901 0 0
                  CHANNELS 3 Zrotation Xrotation Yrotation
                  JOINT LeftHand
                  {
                    OFFSET 24.5451 1.52588e-005 0
                    CHANNELS 3 Zrotation Xrotation Yrotation
                    End Site
                    {
                      OFFSET 0 0 0
                    }
                  }
                }
              }
            }
            JOINT Neck
            {
              OFFSET 5.0226 -0.0266342 0
              CHANNELS 3 Zrotation Xrotation Yrotation
              JOINT Head
              {
                OFFSET 6.69364 2.86102e-005 0
                CHANNELS 3 Zrotation Xrotation Yrotation
                End Site
                {
                  OFFSET 0 0 0
                }
              }
            }
          }
        }
      }
    }
  }
}
MOTION
Frames:	14
Frame Time:	0.0416667
26.7844 93.9629 -245.998 76.6162 -55.9971 84.5209 -156.885 -6.31401 120.922 -17.0153 69.5488 9.66933 54.273 -5.64054 3.74741 53.7596 5.71723 -20.9079 160.863 36.3744 95.7096 -65.6646 2.83552 5.68863 92.0541 -11.0769 -1.23315 12.625 -2.08502 5.59568 -5.26656 7.97263 -91.673 10.8488 -11.2584 -2.2759 -0.773799 -11.3475 -1.77195 -23.6243 -10.0497 -5.58462 -3.61167 -10.0497 -5.58462 92.7154 -13.6782 -107.981 66.1871 -20.8074 59.7014 -34.9614 1.43811 -74.4803 -24.6211 4.26307 -29.6457 -82.9179 -20.7374 85.3484 -9.91271 2.54201 -52.1841 33.919 -16.5198 -102.854 3.37762 -0.920445 -20.7826 37.9085 4.9698 -10.7804 -22.1686 8.96412 5.16798 
26.8744 94.8505 -240.134 70.3412 -64.1004 79.0579 -156.623 -11.0485 118.885 -15.338 60.9275 8.2124 47.914 -7.04489 0.839577 27.6374 4.67464 -7.51385 166.113 39.8668 96.5405 -54.7658 -0.518814 4.13399 86.8483 -10.212 -2.11971 14.4329 -2.1911 5.80283 -4.62736 7.79125 -91.8554 11.1952 -10.0714 -2.70701 -0.438231 -10.1807 -2.25687 -23.205 -8.79016 -5.62746 -3.19231 -8.79016 -5.62745 92.0942 -13.295 -109.845 62.3314 -16.3168 59.0249 -34.3367 1.05848 -75.5807 -23.8067 4.23418 -30.5618 -83.0213 -20.082 84.9779 -8.81877 5.10564 -49.661 34.6057 -16.7254 -101.531 2.66205 -0.80791 -20.6126 39.7893 6.75229 -9.76204 -25.1539 10.0064 6.0963 
27.2601 94.6297 -234.524 60.3065 -74.2746 68.5008 -160.617 -19.6834 112.735 -15.8816 47.7229 6.23614 48.246 -5.40099 0.13179 22.3577 3.13158 -4.17772 172.406 41.3285 97.0815 -45.4353 -4.98733 1.34363 83.653 -10.0275 -2.4726 13.9742 -1.92209 5.28867 -3.6693 7.71445 -91.7606 11.3632 -8.12192 -2.69268 -0.284297 -8.23247 -2.33051 -22.9558 -6.93667 -5.01736 -2.94315 -6.93666 -5.01737 91.4098 -14.5016 -110.917 58.3657 -13.5709 56.4353 -33.2133 -0.173991 -76.1986 -23.8036 3.78824 -28.3297 -83.3445 -21.8073 84.6256 -6.18859 9.53142 -48.1909 36.247 -17.0745 -98.7253 4.72406 -0.859856 -16.6414 38.9592 8.21133 -8.62101 -24.8592 10.7563 6.16852 
27.7845 93.5426 -229.268 24.1305 -82.6862 30.497 -167.778 -22.5221 101.566 -26.0968 34.93 4.24254 51.0611 -3.39001 1.46194 33.5426 2.35171 -4.81584 178.032 42.2473 96.8916 -39.7582 -10.7464 -1.4062 81.7344 -10.129 -2.36164 15.4417 -1.73961 4.9166 -2.61821 7.67659 -91.5226 11.4615 -5.92018 -2.43144 -0.197746 -6.02141 -2.16779 -22.7947 -4.91587 -4.10061 -2.782 -4.91587 -4.10062 91.1076 -17.1037 -110.193 52.7743 -11.6632 50.9062 -34.0461 -4.31576 -75.9478 -25.1715 3.42 -25.9158 -83.5104 -27.3934 85.3547 -1.19128 15.2099 -47.7784 35.7152 -16.2925 -95.1661 5.68203 -1.17478 -19.5491 38.9687 9.74667 -5.60198 -23.9688 11.1661 4.15673 
28.1166 92.3432 -223.769 -35.923 -82.3554 -31.4916 -171.539 -18.779 93.2084 -40.1016 25.32 2.01404 54.3687 -1.80868 -0.557506 35.6809 1.22788 -3.10865 -178.291 42.4982 96.3089 -38.4666 -15.5002 -3.08499 79.9693 -10.1196 -3.25884 12.9472 -1.53663 4.57455 -1.79424 7.61866 -91.2436 11.5999 -4.1515 -2.04885 -0.0657561 -4.23762 -1.86393 -22.6254 -3.34399 -3.20231 -2.6128 -3.34399 -3.20231 90.3876 -21.8001 -109.47 45.9027 -8.60095 43.7715 -36.7138 -9.31941 -75.2941 -29.8857 4.14858 -26.4064 -84.4709 -32.8713 84.5087 2.07797 21.5697 -45.3573 38.9917 -15.861 -91.6139 -1.22487 -0.279242 -23.0468 39.2555 10.2062 -3.65803 -23.8391 10.8611 3.1644 
28.0738 91.3919 -217.62 -56.4292 -80.7676 -52.9956 -170.397 -13.2453 91.3664 -54.6209 21.9354 0.730699 52.363 -2.80937 0.815868 34.8751 2.69765 -5.78529 -176.863 42.2655 96.1192 -43.1112 -17.7563 -4.02508 73.8209 -7.38312 -4.87539 17.432 -1.28045 3.95746 -1.26794 7.68832 -91.1801 11.4676 -3.07396 -2.03826 -0.201032 -3.16067 -1.90095 -22.742 -2.31949 -2.86779 -2.72934 -2.31949 -2.86779 90.272 -24.6488 -108.403 40.7465 -3.58304 35.988 -40.5476 -13.8344 -75.9571 -31.4661 3.25127 -22.8051 -84.8402 -38.6961 84.847 4.7572 26.4597 -44.1007 37.7469 -13.6422 -87.6541 -0.824007 -0.316516 -20.9654 38.3924 10.5736 0.346436 -22.2483 9.65092 1.26606 
27.6079 90.33 -210.999 -62.2484 -81.2495 -58.5487 -167.449 -6.15881 93.9791 -69.3215 17.8786 1.51242 52.6974 -2.6848 2.34404 33.7923 2.9893 -6.1015 -176.979 41.0963 96.2886 -49.6464 -16.6521 -3.80449 71.0999 -5.78406 -3.48886 17.2663 -1.18684 3.76861 -1.03777 7.71221 -91.232 11.4207 -2.63992 -2.1869 -0.249189 -2.7336 -2.0686 -22.7818 -1.86091 -2.87894 -2.76913 -1.86091 -2.87894 89.6392 -26.9859 -108.709 38.1561 1.74172 29.1016 -41.518 -15.9253 -77.3581 -35.0754 2.8918 -19.6783 -84.2555 -44.0535 86.6161 4.46012 32.0232 -40.9441 35.7886 -10.422 -82.4436 0.681177 -0.503795 -19.6372 35.754 10.9339 3.62484 -19.6296 8.79355 -0.173554 
27.3076 88.7408 -204.93 -61.7062 -81.0932 -57.3173 -165.676 2.81438 95.7068 -83.2567 10.4543 3.00292 56.1016 -1.31872 3.5083 36.6688 3.96036 -8.689 -177.522 40.716 96.9502 -57.0153 -14.3492 -2.85628 79.6381 -10.0263 -3.08364 17.6134 -1.73546 4.88512 -0.727956 7.60432 -91.3421 11.637 -2.07696 -2.45888 -0.0344398 -2.18313 -2.36513 -22.5568 -1.24232 -2.96904 -2.5441 -1.24232 -2.96905 89.8456 -27.7074 -107.983 38.6884 5.12611 21.2878 -33.8808 -11.7763 -76.651 -32.4454 3.21846 -20.8623 -83.4644 -47.324 88.275 -1.88953 35.738 -33.255 36.1083 -6.42225 -77.6257 -1.00364 -0.27874 -20.117 32.2545 10.6362 6.38831 -16.207 7.59534 -0.96769 
26.9702 87.5738 -199.21 -66.6461 -81.3829 -60.8414 -164.79 13.2429 96.7522 -94.779 5.09625 4.76899 59.5702 0.153721 5.1642 36.8951 4.84372 -10.4964 -178.688 37.4285 98.402 -60.8955 -13.3998 -2.09677 86.7124 -13.3284 -2.25724 13.6912 -1.82357 5.10241 -0.317559 7.66176 -91.4067 11.5275 -1.28966 -2.67052 -0.145371 -1.40592 -2.61124 -22.6594 -0.427836 -2.93443 -2.64679 -0.427829 -2.93442 89.6066 -29.4568 -107.753 38.9502 9.85014 11.6581 -35.8775 -13.8105 -79.8457 -29.7737 2.83785 -21.3621 -83.4164 -48.757 88.5026 -11.7289 35.5791 -20.2815 41.5197 -4.05157 -76.4482 -1.91443 -0.152497 -19.779 30.7239 9.39649 7.60369 -14.3071 6.08847 -1.86259 
26.7223 86.7998 -193.241 -73.2181 -81.2519 -67.3252 -165.213 23.453 96.0135 -102.527 2.53782 5.84488 62.4599 1.75041 5.39221 29.9297 6.72596 -11.6826 -179.239 32.6864 98.4663 -63.12 -14.6038 -2.0843 92.8659 -16.8124 -3.66288 13.7258 -1.94601 5.34224 0.0478137 7.79463 -91.3063 11.2717 -0.512979 -2.55068 -0.401571 -0.624694 -2.52566 -22.9168 0.277048 -2.58693 -2.90411 0.277053 -2.58694 89.4106 -30.6346 -107.673 38.7385 10.2918 0.0660287 -33.3372 -13.6426 -82.043 -30.8952 2.79674 -20.0929 -83.1504 -48.1805 88.853 -23.1807 32.0635 -2.43686 41.0546 -6.96823 -79.5393 -2.02459 -0.13845 -18.6795 31.7244 7.8812 5.96619 -14.988 5.09491 -0.516411 
26.5316 86.1317 -186.815 -73.8073 -80.7013 -68.1292 -165.65 33.1197 94.3328 -106.181 3.29279 6.17435 65.8815 3.367 8.93047 29.0573 7.17621 -12.1449 -179.085 27.7257 97.9334 -63.5655 -13.848 -2.4453 99.0389 -19.3976 -2.47091 14.5748 -2.36218 6.13778 0.389832 7.75954 -91.2373 11.3496 0.198965 -2.48354 -0.323681 0.0894943 -2.4899 -22.842 0.935961 -2.30911 -2.82933 0.935969 -2.30911 89.0772 -30.1747 -108.515 37.0817 8.67755 -9.82384 -33.6188 -14.3869 -83.9409 -34.2735 2.68054 -18.0709 -81.7052 -49.3928 91.1739 -28.4353 28.5045 14.4768 38.6235 -11.2086 -84.2648 -2.14477 -0.114119 -21.7863 31.2447 6.72554 5.9503 -14.7658 4.07111 -0.921081 
26.2767 86.2166 -180.022 -78.753 -79.8239 -73.7693 -165.374 40.5472 92.697 -104.923 3.39059 5.69874 68.8396 4.81931 10.3757 30.5633 5.48954 -9.71702 -178.583 20.5452 96.663 -61.067 -12.9331 -3.35218 103.879 -20.5017 0.521203 14.0962 -1.5714 4.61442 0.968522 7.71933 -91.0424 11.4462 1.44015 -2.22272 -0.225982 1.34095 -2.28392 -22.7576 2.0415 -1.6873 -2.74493 2.0415 -1.6873 89.8969 -29.4734 -107.162 35.7906 7.15187 -17.716 -30.4827 -11.7577 -85.0137 -34.8813 3.01461 -18.3882 -82.2104 -46.0606 90.1086 -35.4104 25.8097 28.3755 37.802 -14.4149 -87.3907 -1.83358 -0.169165 -21.6486 29.2646 3.77244 4.51159 -13.8051 1.85596 -0.36564 
26.3183 87.3496 -172.694 -83.3929 -80.0785 -79.3619 -166.004 44.9579 90.7677 -98.6082 0.48529 4.47952 72.036 6.31876 8.72845 29.5371 7.44762 -12.7562 -179.852 12.1881 94.662 -56.8586 -17.6941 -4.19316 101.358 -20.7517 -2.85031 17.5913 -1.66485 4.73807 1.37334 7.6366 -90.8252 11.6193 2.34532 -1.88764 -0.0510807 2.25999 -1.98904 -22.5987 2.80412 -1.09525 -2.58602 2.80413 -1.09525 90.353 -26.4182 -107.47 35.9195 6.92721 -20.921 -33.8575 -10.4439 -88.5716 -35.2345 2.68959 -17.5013 -80.1966 -45.435 93.2865 -35.7468 27.8991 39.2309 39.9586 -18.5974 -89.2781 -0.617878 -0.343117 -20.7534 26.8921 1.65918 4.90956 -13.2624 -0.0573281 -1.93868 
26.3393 89.3129 -164.655 -90.7412 -80.8281 -87.8745 -167.109 46.0897 89.1311 -88.6839 -0.980153 2.50727 71.3627 5.82024 6.93235 31.1059 5.64232 -10.1738 177.646 2.92235 91.2612 -50.1599 -22.4482 -4.86013 93.6371 -18.0912 -6.41136 26.0247 -2.90328 7.67603 1.94236 7.68128 -90.667 11.5419 3.55213 -1.69329 -0.125527 3.47418 -1.84812 -22.6984 3.89661 -0.546055 -2.6857 3.89661 -0.546062 92.4841 -21.5065 -104.834 39.1054 7.83414 -23.0525 -38.2837 -8.55193 -92.0413 -33.0946 1.95657 -16.2585 -80.0597 -44.0465 93.4336 -36.8898 29.9988 46.6911 39.8744 -21.9014 -90.9198 -0.776411 -0.334922 -21.694 26.8177 -1.08853 6.18173 -14.8047 -2.94815 -3.78212 
